<svg width="100px" height="100px" viewBox="0 0 100 100" xmlns="http://www.w3.org/2000/svg" style="fill-rule:evenodd;clip-rule:evenodd;stroke-linecap:round;stroke-linejoin:round;stroke-miterlimit:1.5"><path d="M0 0h100v100H0z" style="fill:none"/><path d="M16.605 28.296c-5.893.131-10.612 2.668-12.102 4.505-1.489 1.838 5.685 5.356 7.915 6.457 4.545 2.242 11.585.835 11.585.835s-.875 8.792-.726 17.543c.113 6.655-.604 36.487 26.614 36.375 24.037-.098 24.56-28.225 25.419-34.871.814-6.305-1.852-19.277-1.852-19.277s7.81 1.058 11.839.324c5.394-.982 10.082-6.346 10.054-7.766-.027-1.42-10.553-4.444-13.565-3.397" style="fill:none;stroke:#000;stroke-width:3px"/><path d="m40.367 81.158 9.615 1.176.002-7.171-.002 7.171 10.695-1.132" style="fill:none;stroke:#000;stroke-width:3px"/><path d="M49.858 74.058 42.3 72.125l.963-1.136zl6.285-3.205.996.975z" style="stroke:#000;stroke-width:3px"/><path d="M31.094 49.98c2.116-.638 3.68-.58 4.615.271.823.749 1.413 2.002 1.819 3.432 0 0-3.675-.227-4.603-.966-.857-.681-1.831-2.737-1.831-2.737M62.77 53.304s.509-2.652 1.865-3.422 3.559.171 3.559.171-.085 2.566-1.61 3.079-3.814.172-3.814.172M22.516 22.986s-5.872 1.388-5.458 5.321c.613 5.836 7.899 4.506 7.899 4.506s-3.955 4.239-.445 7.343c1.671 1.478 4.92-.279 4.92-.279s-1.705 2.624-.026 4.757c2.512 3.192 5.053.81 5.053.81s-.564 3.391 2.042 4.382c3.359 1.278 5.792-2.014 5.792-2.014s-.185 4.586 4.091 5.231c3.141.475 4.174-4.002 4.174-4.002s1.365 5.198 4.882 3.592c3.894-1.778 2.471-5.002 2.471-5.002s1.835 2.538 5.452 1.551c2.208-.602 2.164-3.797 2.164-3.797s2.558 1.608 4.102-1.134c1.857-3.297-1.403-5.204-1.403-5.204s3.734 1.895 6.157-.389c3.423-3.227.429-6.899.429-6.899s5.754 3.059 6.706-3.378c.725-4.909-4.482-5.306-4.482-5.306s3.937-2.572 1.749-6.472c-2.448-4.365-8.484-1.138-8.484-1.138s.254-5.845-4.71-7.338c-4.794-1.443-8.159 3.47-8.159 3.47s-1.751-5.016-7.319-5.148c-5.087-.121-6.891 5.276-6.891 5.276S39.09 6.203 34.693 8.21c-6.418 2.929-4.147 7.311-4.147 7.311s-5.37-3.186-8.702.323c-3.054 3.216.672 7.142.672 7.142M12.652 39.469s-4.91 1.175-5.27 5.732c-.391 4.955 4.344 6.894 4.344 6.894s-6.562 1.522-5.527 7.195c1.011 5.543 5.786 4.693 5.786 4.693s-4.485 3.154-2.367 8.07c1.978 4.59 7.605 3.876 7.605 3.876s-5.415 4.072-1.992 7.706c4.188 4.448 8.319.974 8.319.974s-.913 5.481 3.362 7.506c3.97 1.88 8.244-1.326 8.329-1.391M84.19 40.38c4.641-.337 6.942 2.422 7.279 4.569.822 5.238-3.93 7.245-3.93 7.245s6.082 1.55 5.794 6.614c-.326 5.729-7.21 5.922-7.21 5.922s5.921 1.933 4.568 7.37c-1.238 4.972-7.667 3.463-7.667 3.463s3.501 4.188 1.105 7.867c-2.97 4.557-8.906 1.07-8.906 1.07s1.723 5.686-2.789 7.408c-4.616 1.762-8.171-1.508-8.171-1.508" style="fill:none;stroke:#000;stroke-width:3px"/></svg>