<svg width="100px" height="100px" viewBox="0 0 100 100" xmlns="http://www.w3.org/2000/svg" style="fill-rule:evenodd;clip-rule:evenodd;stroke-linecap:round;stroke-linejoin:round;stroke-miterlimit:1.5"><path d="M0 0h100v100H0z" style="fill:none"/><path d="M35.824 71.949s5.032 5.832 7.402 5.775 6.821-6.118 6.821-6.118 5.625 5.794 7.928 5.962c2.303.167 6.76-5.072 6.76-5.072" style="fill:none;stroke:#000;stroke-width:3px"/><path d="M49.999 70.056c-.956.033-4.561-1.287-4.539-4.057.016-1.874.711-2.521 4.472-2.557 3.961-.037 4.604.802 4.429 2.696-.281 3.035-3.406 3.885-4.362 3.918" style="stroke:#000;stroke-width:3px"/><path d="M59.495 54.332s7.75-1.875 7.5-1.667M40.828 54.832s-6.846-2.179-7-2.167" style="fill:none;stroke:#000;stroke-width:3px"/><path d="M39.739 44.732c-.189-.996 1.435-1.767 2.505-1.61.515.075 1.404 1.607.536 2.325-.382.317-2.8.556-3.041-.715M58.083 43.326c1.577-.589 2.727-.015 2.538 1.332-.149 1.066-.931 1.291-1.887 1.223-1.286-.092-2.014-2.046-.651-2.555" style="stroke:#000;stroke-width:3px"/><path d="M14.968 38.18c.55-3.686-1-5.813-.919-11.428.064-4.467 3.638-12.268 6.184-13.178s9.169 4.346 12.153 8.024 2.711 6.401 3.194 6.789c.349.279 10.683-1.261 14.477-1.122 4.505.166 14.193 1.541 14.816 1.126.458-.306 1.893-4.686 4.533-7.721 3.764-4.327 7.125-7.673 9.903-7.003s5.921 5.78 6.767 11.02c.628 3.887-1.272 7.841-.479 12.229.374 2.069 2.472 4.658 3.201 13.997 1.057 13.544-1.196 19.38-7.194 26.315-6.934 8.016-17.815 14.194-31.836 14.049-16.735-.174-26.831-9.595-33.035-17.614-3.978-5.141-6.771-15.948-5.586-22.923.871-5.124 3.31-9.128 3.821-12.56" style="fill:none;stroke:#000;stroke-width:3px"/></svg>