<svg width="100px" height="100px" viewBox="0 0 100 100" xmlns="http://www.w3.org/2000/svg" style="fill-rule:evenodd;clip-rule:evenodd;stroke-linecap:round;stroke-linejoin:round;stroke-miterlimit:1.5"><path d="M0 0h100v100H0z" style="fill:none"/><path d="m44.066 83.722 5.545-2.32.373-5.194.54 5.22 5.986 2.025" style="fill:none;stroke:#000;stroke-width:3px"/><path d="m50.07 75.52-5.385-1.614-.049-1.247zl5.106-2.93-.113 1.15z" style="stroke:#000;stroke-width:3px"/><path d="m27.104 52.935-1.851 6.951 7.977-.145zM68.955 52.573l-5.014 6.911h6.526z" style="stroke:#000;stroke-width:2px"/><path d="M30.345 47.066c-5.827 5.661-8.479 27.099-2.895 35.657 4.173 6.397 15.082 13.955 22.68 13.541s20.482-7.721 22.91-16.024-.583-29.717-6.118-33.796c-2.862-2.109-2.549-12.965 2.23-22.458 5.266-10.457 6.733-18.915 3.355-20.463-6.992-3.204-14.143 6.973-15.891 19.209s-1.655 16.885-1.655 16.885l-9.653-.263s-1.523-12.957-3.038-18.412c-2.166-7.8-6.092-18.693-14.935-16.278-7.253 1.981-3.27 9.64 2.077 16.912 4.043 5.498 4.167 22.348.933 25.49" style="fill:none;stroke:#000;stroke-width:3px"/></svg>