<svg width="100" height="100" viewBox="0 0 100 100" version="1.1" xmlns="http://www.w3.org/2000/svg" style="fill-rule:evenodd;clip-rule:evenodd;stroke-linecap:round;stroke-linejoin:round;stroke-miterlimit:1.5;">
<rect id="hitsuji" x="0" y="0" width="100" height="100" style="fill:none;"/>
<path id="hitsuji_kao" d="M16.605,28.296c-5.893,0.131 -10.612,2.668 -12.102,4.505c-1.489,1.838 5.685,5.356 7.915,6.457c4.545,2.242 11.585,0.835 11.585,0.835c0,0 -0.875,8.792 -0.726,17.543c0.113,6.655 -0.604,36.487 26.614,36.375c24.037,-0.098 24.56,-28.225 25.419,-34.871c0.814,-6.305 -1.852,-19.277 -1.852,-19.277c-0,-0 7.81,1.058 11.839,0.324c5.394,-0.982 10.082,-6.346 10.054,-7.766c-0.027,-1.42 -10.553,-4.444 -13.565,-3.397" style="fill:none;stroke:#000;stroke-width:3px;"/>
<path id="hitsuji_kuchi" d="M40.367,81.158l9.615,1.176l0.002,-7.171l-0.002,7.171l10.695,-1.132" style="fill:none;stroke:#000;stroke-width:3px;"/>
<path id="hitsuji_hana" d="M49.858,74.058l-7.558,-1.933l0.963,-1.136l6.595,3.069l6.285,-3.205l0.996,0.975l-7.281,2.23Z" style="stroke:#000;stroke-width:3px;"/>
<g id="hitsuji_me">
<path d="M31.094,49.98c2.116,-0.638 3.68,-0.58 4.615,0.271c0.823,0.749 1.413,2.002 1.819,3.432c-0,-0 -3.675,-0.227 -4.603,-0.966c-0.857,-0.681 -1.831,-2.737 -1.831,-2.737Z" style="fill:none;stroke:#000;stroke-width:3px;"/>
<path d="M62.77,53.304c0,-0 0.509,-2.652 1.865,-3.422c1.355,-0.77 3.559,0.171 3.559,0.171c-0,-0 -0.085,2.566 -1.61,3.079c-1.526,0.514 -3.814,0.172 -3.814,0.172Z" style="fill:none;stroke:#000;stroke-width:3px;"/>
</g>
<g id="hitsuji_ke">
<path d="M22.516,22.986c-0,-0 -5.872,1.388 -5.458,5.321c0.613,5.836 7.899,4.506 7.899,4.506c0,0 -3.955,4.239 -0.445,7.343c1.671,1.478 4.92,-0.279 4.92,-0.279c0,-0 -1.705,2.624 -0.026,4.757c2.512,3.192 5.053,0.81 5.053,0.81c0,-0 -0.564,3.391 2.042,4.382c3.359,1.278 5.792,-2.014 5.792,-2.014c-0,-0 -0.185,4.586 4.091,5.231c3.141,0.475 4.174,-4.002 4.174,-4.002c0,-0 1.365,5.198 4.882,3.592c3.894,-1.778 2.471,-5.002 2.471,-5.002c-0,-0 1.835,2.538 5.452,1.551c2.208,-0.602 2.164,-3.797 2.164,-3.797c0,-0 2.558,1.608 4.102,-1.134c1.857,-3.297 -1.403,-5.204 -1.403,-5.204c0,-0 3.734,1.895 6.157,-0.389c3.423,-3.227 0.429,-6.899 0.429,-6.899c-0,-0 5.754,3.059 6.706,-3.378c0.725,-4.909 -4.482,-5.306 -4.482,-5.306c-0,0 3.937,-2.572 1.749,-6.472c-2.448,-4.365 -8.484,-1.138 -8.484,-1.138c-0,0 0.254,-5.845 -4.71,-7.338c-4.794,-1.443 -8.159,3.47 -8.159,3.47c0,0 -1.751,-5.016 -7.319,-5.148c-5.087,-0.121 -6.891,5.276 -6.891,5.276c-0,0 -4.132,-5.522 -8.529,-3.515c-6.418,2.929 -4.147,7.311 -4.147,7.311c-0,-0 -5.37,-3.186 -8.702,0.323c-3.054,3.216 0.672,7.142 0.672,7.142Z" style="fill:none;stroke:#000;stroke-width:3px;"/>
<path d="M12.652,39.469c0,0 -4.91,1.175 -5.27,5.732c-0.391,4.955 4.344,6.894 4.344,6.894c-0,0 -6.562,1.522 -5.527,7.195c1.011,5.543 5.786,4.693 5.786,4.693c-0,-0 -4.485,3.154 -2.367,8.07c1.978,4.59 7.605,3.876 7.605,3.876c0,-0 -5.415,4.072 -1.992,7.706c4.188,4.448 8.319,0.974 8.319,0.974c0,-0 -0.913,5.481 3.362,7.506c3.97,1.88 8.244,-1.326 8.329,-1.391" style="fill:none;stroke:#000;stroke-width:3px;"/>
<path d="M84.19,40.38c4.641,-0.337 6.942,2.422 7.279,4.569c0.822,5.238 -3.93,7.245 -3.93,7.245c0,0 6.082,1.55 5.794,6.614c-0.326,5.729 -7.21,5.922 -7.21,5.922c-0,0 5.921,1.933 4.568,7.37c-1.238,4.972 -7.667,3.463 -7.667,3.463c-0,0 3.501,4.188 1.105,7.867c-2.97,4.557 -8.906,1.07 -8.906,1.07c-0,0 1.723,5.686 -2.789,7.408c-4.616,1.762 -8.171,-1.508 -8.171,-1.508" style="fill:none;stroke:#000;stroke-width:3px;"/>
</g>
</svg>