<svg width="100" height="100" viewBox="0 0 100 100" version="1.1" xmlns="http://www.w3.org/2000/svg" style="fill-rule:evenodd;clip-rule:evenodd;stroke-linecap:round;stroke-linejoin:round;stroke-miterlimit:1.5;">
<rect id="inu" x="0" y="0" width="100" height="100" style="fill:none;"/>
<path id="inu_kuchi" d="M35.824,71.949c0,-0 5.032,5.832 7.402,5.775c2.37,-0.057 6.821,-6.118 6.821,-6.118c-0,-0 5.625,5.794 7.928,5.962c2.303,0.167 6.76,-5.072 6.76,-5.072" style="fill:none;stroke:#000;stroke-width:3px;"/>
<path id="inu_hana" d="M49.999,70.056c-0.956,0.033 -4.561,-1.287 -4.539,-4.057c0.016,-1.874 0.711,-2.521 4.472,-2.557c3.961,-0.037 4.604,0.802 4.429,2.696c-0.281,3.035 -3.406,3.885 -4.362,3.918Z" style="stroke:#000;stroke-width:3px;"/>
<g id="inu_me">
<path d="M59.495,54.332c-0,0 7.75,-1.875 7.5,-1.667" style="fill:none;stroke:#000;stroke-width:3px;"/>
<path d="M40.828,54.832c0,0 -6.846,-2.179 -7,-2.167" style="fill:none;stroke:#000;stroke-width:3px;"/>
</g>
<g id="inu_maro">
<path d="M39.739,44.732c-0.189,-0.996 1.435,-1.767 2.505,-1.61c0.515,0.075 1.404,1.607 0.536,2.325c-0.382,0.317 -2.8,0.556 -3.041,-0.715Z" style="stroke:#000;stroke-width:3px;"/>
<path d="M58.083,43.326c1.577,-0.589 2.727,-0.015 2.538,1.332c-0.149,1.066 -0.931,1.291 -1.887,1.223c-1.286,-0.092 -2.014,-2.046 -0.651,-2.555Z" style="stroke:#000;stroke-width:3px;"/>
</g>
<path id="inu_kao" d="M14.968,38.18c0.55,-3.686 -1,-5.813 -0.919,-11.428c0.064,-4.467 3.638,-12.268 6.184,-13.178c2.546,-0.91 9.169,4.346 12.153,8.024c2.984,3.678 2.711,6.401 3.194,6.789c0.349,0.279 10.683,-1.261 14.477,-1.122c4.505,0.166 14.193,1.541 14.816,1.126c0.458,-0.306 1.893,-4.686 4.533,-7.721c3.764,-4.327 7.125,-7.673 9.903,-7.003c2.779,0.669 5.921,5.78 6.767,11.02c0.628,3.887 -1.272,7.841 -0.479,12.229c0.374,2.069 2.472,4.658 3.201,13.997c1.057,13.544 -1.196,19.38 -7.194,26.315c-6.934,8.016 -17.815,14.194 -31.836,14.049c-16.735,-0.174 -26.831,-9.595 -33.035,-17.614c-3.978,-5.141 -6.771,-15.948 -5.586,-22.923c0.871,-5.124 3.31,-9.128 3.821,-12.56Z" style="fill:none;stroke:#000;stroke-width:3px;"/>
</svg>