<svg width="100" height="100" viewBox="0 0 100 100" version="1.1" xmlns="http://www.w3.org/2000/svg" style="fill-rule:evenodd;clip-rule:evenodd;stroke-linecap:round;stroke-linejoin:round;stroke-miterlimit:1.5;">
<rect id="neko" x="0" y="0" width="100" height="100" style="fill:none;"/>
<path id="neko_kuchi" d="M39.282,74.307c6.775,0.96 8.624,-7.012 10.796,-6.795c2.173,0.218 4.407,7.104 11.883,6.739" style="fill:none;stroke:#000;stroke-width:3px;"/>
<path id="neko_hana" d="M44.224,58.823l0.371,3.648c0,0 2.408,0.717 3.119,1.314c0.483,0.407 0.642,2.405 0.642,2.405c0.555,0.113 2.165,0.084 3.084,-0.046c0,0 0.059,-1.821 0.535,-2.227c0.608,-0.519 2.7,-0.976 2.7,-0.976l0.586,-4.051l-11.037,-0.067Z" style="fill:none;stroke:#000;stroke-width:3px;"/>
<path id="neko_me" d="M31.212,48.109c-0,0 9.687,-0.264 10.671,0.716c1.013,1.008 2.243,9.907 2.243,9.907l11.256,0.218c-0,-0 0.504,-9.348 1.438,-10.18c0.927,-0.826 10.74,-0.246 10.74,-0.246" style="fill:none;stroke:#000;stroke-width:3px;"/>
<path id="neko_kao" d="M18.087,31.878c-0,0 2.969,-15.935 6.301,-16.297c3.332,-0.362 11.505,13.45 11.505,13.45l28.396,0.022c-0,0 6.745,-13.761 9.207,-13.472c2.463,0.29 9.385,20.589 9.385,20.589c-0,-0 1.671,8.203 1.969,22.164c0.413,19.335 -14.822,30.169 -34.977,29.736c-22.543,-0.484 -33.58,-12.398 -34.611,-29.261c-0.823,-13.454 2.825,-26.931 2.825,-26.931Z" style="fill:none;stroke:#000;stroke-width:3px;"/>
</svg>