<svg width="100" height="100" viewBox="0 0 100 100" version="1.1" xmlns="http://www.w3.org/2000/svg" style="fill-rule:evenodd;clip-rule:evenodd;stroke-linecap:round;stroke-linejoin:round;stroke-miterlimit:1.5;">
<rect id="usagi" x="0" y="0" width="100" height="100" style="fill:none;"/>
<path id="usagi_kuchi" d="M44.066,83.722l5.545,-2.32l0.373,-5.194l0.54,5.22l5.986,2.025" style="fill:none;stroke:#000;stroke-width:3px;"/>
<path id="usagi_hana" d="M50.07,75.52l-5.385,-1.614l-0.049,-1.247l5.434,2.861l5.106,-2.93l-0.113,1.15l-4.993,1.78Z" style="stroke:#000;stroke-width:3px;"/>
<g id="usagi_me">
<path d="M27.104,52.935l-1.851,6.951l7.977,-0.145l-6.126,-6.806Z" style="stroke:#000;stroke-width:2px;"/>
<path d="M68.955,52.573l-5.014,6.911l6.526,0l-1.512,-6.911Z" style="stroke:#000;stroke-width:2px;"/>
</g>
<path id="usagi_kao" d="M30.345,47.066c-5.827,5.661 -8.479,27.099 -2.895,35.657c4.173,6.397 15.082,13.955 22.68,13.541c7.598,-0.414 20.482,-7.721 22.91,-16.024c2.428,-8.303 -0.583,-29.717 -6.118,-33.796c-2.862,-2.109 -2.549,-12.965 2.23,-22.458c5.266,-10.457 6.733,-18.915 3.355,-20.463c-6.992,-3.204 -14.143,6.973 -15.891,19.209c-1.748,12.237 -1.655,16.885 -1.655,16.885l-9.653,-0.263c0,0 -1.523,-12.957 -3.038,-18.412c-2.166,-7.8 -6.092,-18.693 -14.935,-16.278c-7.253,1.981 -3.27,9.64 2.077,16.912c4.043,5.498 4.167,22.348 0.933,25.49Z" style="fill:none;stroke:#000;stroke-width:3px;"/>
</svg>